<svg width="15" height="15" xmlns="http://www.w3.org/2000/svg" viewBox="0 0 15 15"><title>local_printshop</title><g fill="none" class="nc-icon-wrapper"><path opacity=".3" d="M5.04 3.15h5.04v1.89h-5.04v-1.89z m6.93 3.15h-8.82c-0.35 0-0.63 0.28-0.63 0.63v2.52h1.26v-1.26h7.56v1.26h1.26v-2.52c0-0.35-0.28-0.63-0.63-0.63z m-0.63 1.57c-0.35 0-0.63-0.28-0.63-0.63s0.28-0.63 0.63-0.63 0.63 0.28 0.63 0.63-0.28 0.63-0.63 0.63z" fill="#212121"></path><path d="M11.97 5.04h-0.63v-3.15h-7.56v3.15h-0.63c-1.05 0-1.89 0.84-1.89 1.89v3.78h2.52v2.52h7.56v-2.52h2.52v-3.78c0-1.05-0.84-1.89-1.89-1.89z m-6.93-1.89h5.04v1.89h-5.04v-1.89z m5.04 8.82h-5.04v-2.52h5.04v2.52z m2.52-2.52h-1.26v-1.26h-7.56v1.26h-1.26v-2.52c0-0.35 0.28-0.63 0.63-0.63h8.82c0.35 0 0.63 0.28 0.63 0.63v2.52z" fill="#212121"></path><path d="M11.34 7.88a0.63 0.63 0 1 0 0-1.26 0.63 0.63 0 0 0 0 1.26z" fill="#212121"></path></g></svg>